<svg width="133" height="62" viewBox="0 0 133 62" fill="none" xmlns="http://www.w3.org/2000/svg">
<g filter="url(#filter0_d_310_4)">
<g filter="url(#filter1_d_310_4)">
<line y1="-0.5" x2="34.5179" y2="-0.5" transform="matrix(-0.327292 0.944923 -0.998082 -0.0619135 55.2974 4.3833)" stroke="#1E1E1E"/>
<line y1="-0.5" x2="34.5444" y2="-0.5" transform="matrix(-0.332026 -0.94327 0.997902 -0.0647368 68.4697 36.968)" stroke="#1E1E1E"/>
<circle cx="56.5" cy="2.5" r="2.5" fill="#1E1E1E"/>
<line x1="50" y1="20.5" x2="62" y2="20.5" stroke="#1E1E1E"/>
<line x1="44.6507" y1="36.9328" x2="61.3348" y2="20.6423" stroke="#1E1E1E"/>
<line x1="50.6547" y1="19.9301" x2="59.3376" y2="11.6384" stroke="#1E1E1E"/>
</g>
<mask id="path-7-inside-1_310_4" fill="white">
<path d="M35 17C35 16.4477 35.3877 16.2239 35.866 16.5L55.7846 28C56.2629 28.2761 56.6506 28.9477 56.6506 29.5L56.6506 52.5C56.6506 53.0523 56.2629 53.2761 55.7846 53L35.866 41.5C35.3877 41.2239 35 40.5523 35 40L35 17Z"/>
</mask>
<path d="M35 16L56.6506 28.5L35 16ZM57.5167 53C57.5167 54.1046 56.7412 54.5523 55.7846 54L35.866 42.5C34.9094 41.9477 34.134 40.6046 34.134 39.5L35.866 40.5L55.7846 52L57.5167 53ZM35.866 42.5C34.9094 41.9477 34.134 40.6046 34.134 39.5L34.134 17.5C34.134 16.3954 34.9094 15.9477 35.866 16.5C35.866 16.5 35.866 16.9477 35.866 17.5L35.866 40.5L35.866 42.5ZM55.7846 28C56.7412 28.5523 57.5167 29.8954 57.5167 31L57.5167 53C57.5167 54.1046 56.7412 54.5523 55.7846 54L55.7846 52L55.7846 29C55.7846 28.4477 55.7846 28 55.7846 28Z" fill="#1E1E1E" mask="url(#path-7-inside-1_310_4)"/>
<mask id="path-9-inside-2_310_4" fill="white">
<path d="M55.7849 4.5C56.2631 4.22386 57.0386 4.22386 57.5169 4.5L77.4355 16C77.9138 16.2761 77.9138 16.7239 77.4355 17L57.5169 28.5C57.0386 28.7761 56.2631 28.7761 55.7849 28.5L35.8663 17C35.388 16.7239 35.388 16.2761 35.8663 16L55.7849 4.5Z"/>
</mask>
<path d="M54.9188 4C55.8754 3.44772 57.4263 3.44772 58.3829 4L78.3015 15.5C79.2581 16.0523 79.2581 16.9477 78.3015 17.5L76.5695 16.5L56.6509 5L54.9188 4ZM56.6509 29L35.0002 16.5L56.6509 29ZM35.8663 17C34.9097 16.4477 34.9097 15.5523 35.8663 15L54.9188 4C55.8754 3.44772 57.4263 3.44772 58.3829 4L56.6509 5L36.7323 16.5C36.254 16.7761 35.8663 17 35.8663 17ZM78.3015 15.5C79.2581 16.0523 79.2581 16.9477 78.3015 17.5L59.249 28.5C58.2924 29.0523 56.7414 29.0523 55.7849 28.5C55.7849 28.5 56.1726 28.2761 56.6509 28L76.5695 16.5L78.3015 15.5Z" fill="#1E1E1E" mask="url(#path-9-inside-2_310_4)"/>
<rect width="25" height="25" rx="1" transform="matrix(0.866025 -0.5 2.20305e-08 1 56 28.5)" fill="#1E1E1E"/>
</g>
<path d="M7.38 32L9.48 21.2H10.92L8.82 32H7.38ZM0.66 32L2.76 21.2H3.9L8.7 27.74L8.4 29.66L3.3 22.76L3.84 22.88L2.1 32H0.66ZM15.6199 32.12C14.7799 32.12 14.0749 31.985 13.5049 31.715C12.9349 31.445 12.5049 31.055 12.2149 30.545C11.9249 30.035 11.7799 29.42 11.7799 28.7C11.7799 28.05 11.8799 27.425 12.0799 26.825C12.2899 26.225 12.5849 25.69 12.9649 25.22C13.3549 24.74 13.8299 24.36 14.3899 24.08C14.9499 23.8 15.5799 23.66 16.2799 23.66C17.3299 23.66 18.1199 23.93 18.6499 24.47C19.1899 25.01 19.4599 25.7 19.4599 26.54C19.4599 26.87 19.4299 27.195 19.3699 27.515C19.3099 27.835 19.2399 28.13 19.1599 28.4H12.7399V27.26H17.9599C17.9899 27.14 18.0099 27.02 18.0199 26.9C18.0399 26.77 18.0499 26.67 18.0499 26.6C18.0499 26.06 17.9099 25.635 17.6299 25.325C17.3499 25.015 16.8799 24.86 16.2199 24.86C15.7399 24.86 15.3099 24.965 14.9299 25.175C14.5599 25.385 14.2449 25.66 13.9849 26C13.7249 26.34 13.5249 26.72 13.3849 27.14C13.2549 27.56 13.1899 27.98 13.1899 28.4V28.7C13.1899 29.45 13.4199 30.01 13.8799 30.38C14.3399 30.74 14.9599 30.92 15.7399 30.92C16.2499 30.92 16.7099 30.87 17.1199 30.77C17.5299 30.67 17.8499 30.56 18.0799 30.44H18.1999L17.9599 31.7C17.7199 31.82 17.3899 31.92 16.9699 32C16.5499 32.08 16.0999 32.12 15.6199 32.12ZM23.7298 32.12C22.9798 32.12 22.3898 31.935 21.9598 31.565C21.5398 31.185 21.3298 30.65 21.3298 29.96C21.3298 29.87 21.3348 29.765 21.3448 29.645C21.3548 29.525 21.3698 29.41 21.3898 29.3L22.8898 21.62H24.2698L22.7698 29.3C22.7498 29.4 22.7348 29.5 22.7248 29.6C22.7148 29.7 22.7098 29.78 22.7098 29.84C22.7098 30.17 22.8098 30.435 23.0098 30.635C23.2098 30.825 23.5498 30.92 24.0298 30.92C24.4398 30.92 24.8198 30.84 25.1698 30.68H25.2898L25.1098 31.88C24.9498 31.95 24.7448 32.005 24.4948 32.045C24.2548 32.095 23.9998 32.12 23.7298 32.12ZM20.9698 25.04L21.2098 23.84H26.1898L25.9498 25.04H20.9698Z" fill="black"/>
<path d="M88.72 21.2H91.12C92.47 21.2 93.515 21.535 94.255 22.205C95.005 22.875 95.38 23.84 95.38 25.1C95.38 25.71 95.295 26.34 95.125 26.99C94.965 27.63 94.715 28.25 94.375 28.85C94.045 29.45 93.63 29.985 93.13 30.455C92.64 30.925 92.065 31.3 91.405 31.58C90.755 31.86 90.02 32 89.2 32H86.62L86.86 30.74H89.2C89.86 30.74 90.445 30.615 90.955 30.365C91.465 30.115 91.905 29.785 92.275 29.375C92.645 28.955 92.945 28.5 93.175 28.01C93.415 27.51 93.59 27.015 93.7 26.525C93.82 26.025 93.88 25.57 93.88 25.16C93.88 24.23 93.645 23.55 93.175 23.12C92.705 22.68 92.02 22.46 91.12 22.46H88.48L88.72 21.2ZM85.66 32L87.76 21.2H89.2L87.1 32H85.66ZM96.9331 27.74C96.9331 26.96 97.0531 26.175 97.2931 25.385C97.5431 24.595 97.9131 23.87 98.4031 23.21C98.9031 22.55 99.5181 22.02 100.248 21.62C100.988 21.22 101.843 21.02 102.813 21.02C103.753 21.02 104.553 21.205 105.213 21.575C105.873 21.935 106.378 22.45 106.728 23.12C107.078 23.78 107.253 24.56 107.253 25.46C107.253 26.08 107.173 26.71 107.013 27.35C106.863 27.99 106.633 28.6 106.323 29.18C106.013 29.75 105.623 30.265 105.153 30.725C104.683 31.175 104.133 31.53 103.503 31.79C102.873 32.05 102.163 32.18 101.373 32.18C100.433 32.18 99.6331 32 98.9731 31.64C98.3131 31.27 97.8081 30.755 97.4581 30.095C97.1081 29.425 96.9331 28.64 96.9331 27.74ZM98.4331 27.74C98.4331 28.79 98.7081 29.575 99.2581 30.095C99.8081 30.605 100.533 30.86 101.433 30.86C102.173 30.86 102.813 30.7 103.353 30.38C103.893 30.06 104.338 29.635 104.688 29.105C105.048 28.575 105.313 27.995 105.483 27.365C105.663 26.725 105.753 26.09 105.753 25.46C105.753 24.41 105.478 23.63 104.928 23.12C104.378 22.6 103.653 22.34 102.753 22.34C102.023 22.34 101.383 22.5 100.833 22.82C100.293 23.14 99.8431 23.565 99.4831 24.095C99.1331 24.625 98.8681 25.21 98.6881 25.85C98.5181 26.48 98.4331 27.11 98.4331 27.74ZM108.336 32L110.436 21.2H111.876L109.776 32H108.336ZM109.296 32L109.536 30.74H115.566L115.326 32H109.296ZM110.316 26.96L110.556 25.7H115.566L115.326 26.96H110.316ZM111.156 22.46L111.396 21.2H117.246L117.006 22.46H111.156ZM119.199 28.76L119.439 27.44H121.839C122.459 27.44 123.004 27.285 123.474 26.975C123.944 26.655 124.309 26.245 124.569 25.745C124.829 25.235 124.959 24.7 124.959 24.14C124.959 23.54 124.794 23.11 124.464 22.85C124.134 22.59 123.699 22.46 123.159 22.46H120.399L120.639 21.2H123.159C124.269 21.2 125.094 21.45 125.634 21.95C126.184 22.45 126.459 23.18 126.459 24.14C126.459 24.66 126.374 25.15 126.204 25.61C126.044 26.07 125.819 26.495 125.529 26.885C125.239 27.265 124.909 27.595 124.539 27.875C124.169 28.155 123.779 28.375 123.369 28.535C122.959 28.685 122.549 28.76 122.139 28.76H119.199ZM117.579 32L119.679 21.2H121.119L119.019 32H117.579ZM123.969 32L121.839 28.34L123.159 27.8L125.619 31.88V32H123.969Z" fill="black"/>
<defs>
<filter id="filter0_d_310_4" x="31" y="0" width="50.7944" height="61.1182" filterUnits="userSpaceOnUse" color-interpolation-filters="sRGB">
<feFlood flood-opacity="0" result="BackgroundImageFix"/>
<feColorMatrix in="SourceAlpha" type="matrix" values="0 0 0 0 0 0 0 0 0 0 0 0 0 0 0 0 0 0 127 0" result="hardAlpha"/>
<feOffset dy="4"/>
<feGaussianBlur stdDeviation="2"/>
<feComposite in2="hardAlpha" operator="out"/>
<feColorMatrix type="matrix" values="0 0 0 0 0 0 0 0 0 0 0 0 0 0 0 0 0 0 0.25 0"/>
<feBlend mode="normal" in2="BackgroundImageFix" result="effect1_dropShadow_310_4"/>
<feBlend mode="normal" in="SourceGraphic" in2="effect1_dropShadow_310_4" result="shape"/>
</filter>
<filter id="filter1_d_310_4" x="40" y="0" width="32.4697" height="45.2905" filterUnits="userSpaceOnUse" color-interpolation-filters="sRGB">
<feFlood flood-opacity="0" result="BackgroundImageFix"/>
<feColorMatrix in="SourceAlpha" type="matrix" values="0 0 0 0 0 0 0 0 0 0 0 0 0 0 0 0 0 0 127 0" result="hardAlpha"/>
<feOffset dy="4"/>
<feGaussianBlur stdDeviation="2"/>
<feComposite in2="hardAlpha" operator="out"/>
<feColorMatrix type="matrix" values="0 0 0 0 0 0 0 0 0 0 0 0 0 0 0 0 0 0 0.25 0"/>
<feBlend mode="normal" in2="BackgroundImageFix" result="effect1_dropShadow_310_4"/>
<feBlend mode="normal" in="SourceGraphic" in2="effect1_dropShadow_310_4" result="shape"/>
</filter>
</defs>
</svg>
